<svg width="38" height="38" viewBox="0 0 38 38" fill="none" xmlns="http://www.w3.org/2000/svg">
<g id="vuesax/linear/gallery-add">
<g id="gallery-add">
<path id="Vector" fill-rule="evenodd" clip-rule="evenodd" d="M14.25 15.8333C12.5011 15.8333 11.0833 14.4156 11.0833 12.6667C11.0833 10.9178 12.5011 9.5 14.25 9.5C15.9989 9.5 17.4166 10.9178 17.4166 12.6667C17.4166 14.4156 15.9989 15.8333 14.25 15.8333Z" stroke="#E41636" stroke-width="2" stroke-linecap="round" stroke-linejoin="round"/>
<path id="Vector_2" d="M20.5834 3.16675H14.25C6.33335 3.16675 3.16669 6.33341 3.16669 14.2501V23.7501C3.16669 31.6667 6.33335 34.8334 14.25 34.8334H23.75C31.6667 34.8334 34.8334 31.6667 34.8334 23.7501V15.8334" stroke="#E41636" stroke-width="2" stroke-linecap="round" stroke-linejoin="round"/>
<path id="Vector_3" d="M24.9375 7.91675H33.6458" stroke="#E41636" stroke-width="2" stroke-linecap="round"/>
<path id="Vector_4" d="M29.2917 12.2708V3.5625" stroke="#E41636" stroke-width="2" stroke-linecap="round"/>
<path id="Vector_5" d="M4.22754 30.0042L12.0334 24.7634C13.2842 23.9242 15.0892 24.0192 16.2134 24.9851L16.7359 25.4442C17.9709 26.5051 19.9659 26.5051 21.2009 25.4442L27.7875 19.7917C29.0225 18.7309 31.0175 18.7309 32.2525 19.7917L34.8334 22.0084" stroke="#E41636" stroke-width="2" stroke-linecap="round" stroke-linejoin="round"/>
</g>
</g>
</svg>
