<svg width="25" height="25" viewBox="0 0 25 25" fill="none" xmlns="http://www.w3.org/2000/svg">
<path d="M1.5426 19.7595C1.5426 21.9036 3.06604 22.7838 4.91673 21.7231L7.56864 20.2109C8.14417 19.8837 9.10337 19.8498 9.70146 20.1545L15.6259 23.1224C16.224 23.4158 17.1832 23.3932 17.7587 23.066L22.645 20.2673C23.2657 19.9062 23.7848 19.026 23.7848 18.3038V7.32376C23.7848 5.17967 22.2614 4.29946 20.4107 5.36022L17.7587 6.87238C17.1832 7.19963 16.224 7.23349 15.6259 6.9288L9.70146 3.9722C9.10337 3.6788 8.14417 3.70137 7.56864 4.02862L2.68236 6.82724C2.05042 7.18835 1.5426 8.06856 1.5426 8.77949V19.7595Z" stroke="white" stroke-width="1.5" stroke-linecap="round" stroke-linejoin="round"/>
<path d="M8.61816 4.51392V19.1841" stroke="white" stroke-width="1.5" stroke-linecap="round" stroke-linejoin="round"/>
<path d="M16.7092 7.47046V22.5694" stroke="white" stroke-width="1.5" stroke-linecap="round" stroke-linejoin="round"/>
</svg>
